<?xml version="1.0" standalone="no"?>
<!DOCTYPE svg PUBLIC "-//W3C//DTD SVG 20010904//EN"
 "http://www.w3.org/TR/2001/REC-SVG-20010904/DTD/svg10.dtd">
<svg version="1.0" xmlns="http://www.w3.org/2000/svg"
 width="533.000000pt" height="533.000000pt" viewBox="0 0 533.000000 533.000000"
 preserveAspectRatio="xMidYMid meet">
<metadata>
Created by potrace 1.11, written by Peter Selinger 2001-2013
</metadata>
<g transform="translate(0.000000,533.000000) scale(0.100000,-0.100000)"
fill="#000000" stroke="none">
<path d="M1827 4242 l-797 -797 0 -1563 0 -1562 1600 0 1600 0 0 1563 0 1562
-798 798 c-438 438 -799 797 -802 797 -3 0 -364 -359 -803 -798z m1507 -188
l696 -696 0 -577 0 -576 -700 -700 -700 -700 -700 700 -700 700 0 577 0 576
693 695 c380 382 697 695 703 696 7 0 325 -312 708 -695z"/>
</g>
</svg>
